/* XPM */
static char *E_image1715000516[] = {
/* columns rows colors chars-per-pixel */
"64 64 38 1 ",
"  c #4B433E",
". c #52453F",
"X c #59473F",
"o c #5A483F",
"O c #4E4641",
"+ c #4F4843",
"@ c #524741",
"# c #544A44",
"$ c #5C4C44",
"% c #544E49",
"& c #5C4F48",
"* c #56514C",
"= c #5C524C",
"- c #575450",
"; c #5C5651",
": c #5E5954",
"> c #5F5C58",
", c #614E45",
"< c #604F48",
"1 c #635047",
"2 c #64524A",
"3 c #69554B",
"4 c #6C584E",
"5 c #615750",
"6 c #635A54",
"7 c #6A5B54",
"8 c #635E59",
"9 c #6A5F58",
"0 c #705B51",
"q c #65615D",
"w c #6B625B",
"e c #676460",
"r c #6A6661",
"t c #6D6964",
"y c #716B65",
"u c #716E69",
"i c #75716B",
"p c #777570",
/* pixels */
"72,$,oo1,ooo,,,,103,o,4ywyyyttq;5&8yttt8==&;;=5=7ww;=;===;=6tptt",
"21,,,,13,,,,,,,1,,1,,,o,,3319t6&&$22222<$$X$$<<<273$$$,$$,$$9r2,",
",,1,o,13,,,,3,11,,31,o,,333358&$$,22,,223<$$<1$<$1<<2$,<,<<<2522",
",,,,,,3331,,1111,,111,,o333o5q&$$$&,,$&22,,$<<<<$,$$<<$$$<<,&732",
"2,,,,,313,,,1311,,,,,,,,333,47&$$$,&<,$$<$<$$$$<<$$$1<1$$,,<<523",
"3,,,,,,13,,,,111,,3,1,oo,3,,29&XXX$,&&$$$$<$<<2<$<$X$,,<$$$,&632",
"13,,,,,131,,,,1,,,3,,,1,,,,,28$$$$$&&,$$$$$<<<<<$$X$$$<2<$$$$741",
",13,,,,,3,,,,,11,,,o,,,,,o11<5<$<,,,&,,XXX$$$<X$<$$,$$2<<$$$<731",
"<,,<,,,,,,,,,,,11111,,1,,,1225$$<<$<<$&XXX$$<$X$<$$<$<,<<,$,=5,3",
"&&$&<27<oo##$#<,&$#$$#&#@#$*=*$<22<<<<,<$X$$<$$$<,&<3<<&<$$$=;&&",
"qqqq855809988qttwqqrqqrw8:qqrq:8666wqw696;*;6::686869w95*-658ter",
"77972<$,007755776677677ypq;:6-%%++++#%#+ +;ttr;%+#+%+#%-8;&$5999",
"$$$$,$$$X,,X#XXXX,XXXX,6r%  O@  ++OOO@@   ++++%#++#%+  *8&$,,$$,",
"&,,,,$$,XXXX,$$XX$,,,,$<q*%+  OO++O+++OO     + OO O+O  %8$$,,$$$",
",,$$,,,,,XXXX,$XX,,11$$&8%+#O++%++O+O+OO   ++OOOOO++OO %>&,$,#,$",
"$$$,,,,,X,,,X,XXX$$,1,,=q* ++O@++OOOOO O+   +OOO  +    +8*$$,,,,",
"$$$$$,,,$$X,X,XX,1,33,<5q*OOO O%@OOOOOO%   O%+++  +#+  %>=$$$<11",
",,$$,X$$,$$X,,,$,13343<<>%  O  O+++OOO+@O   %+@++  +OO O>=,$,,,,",
",$$,,,,,,$,$,1,,,,334,,<>%  OO %%@OOOOOOO   @@%++++ +  +q5,,,,$,",
"$$$@,,,,,$$,,X,,,111,$,=>% OOOOOOOO O+OO   OOOO+ O  +  %><<<$$#$",
"-&---=55<554527435775326q-%%%+OO+++O+%+%OOOO++O+OO OOO+-:=22*=;*",
"uyryttt95565255775=<==58y6=;qeq88>>8:5;8:--qq9ereeqqq86786=wtttt",
"i9,5<<&,,3$$$$<1<,$X$$&$,$$$5978uuw94<<<<<590y9999976732,,,32,34",
"93,,,$$$1,$$$#,,<,$$$$,@#$,$$$,#883<111<<4<,1131,,,,,,,,,,22,,,3",
"65,$$$$$,$$X@$,,,$$$$$$$$$<<$$$$;83,,13,13313,,<,131,,21,,,,,,,2",
"5<$$$$$$$$$$$$$X$$$$$$,,$,,<$,$,862,3,,11133313<111,,,11,,,,,,33",
"6<,$$$$$,$$,3,$X$,$,<,$$,$$$,,,$;:2<,1,,,111,3,,13,,,,1,,,,,,,23",
"5&$,,$$,,,,,<,X$$,#,,,,$@#$,$#<&;:<211111211,33,11,,,,,,,,,,,,,1",
";&,<,$$,$$$<1,$$,1,22,,,,$,$$$<,::13331323,1,23<11,,$,,,,,,,,,,,",
":;<<,$,<$$$<,,#$,,<33<$,,$$$X,,,::233311221,23,31311,,,,2,,,,,X,",
"8>232<<$$$#$<,$$,$,,<$$$$,$@@$$&::111131222233,,12,o,,,12,,$,,1,",
"tt88896;&%-==-;5=%*;;-;-&;--&<2=:q277777772=26;;=;=<;*;*;=;=997=",
"6:&#@+#8rwrrrrrttuterryyttrr9;=5tt6;6;=6;;;;;qtqtitqttrqtrw;%# #",
"###%@@@####&###@%ee&$%####$%%##&=2#&&###o#o$#$&%;qq=##%##%%.#.  ",
"##@X@@@##&#@+@@.@86##@#@@@@$@$&5&&&&$$$$##$##o#&&::.########%...",
"#@#@##@#####@@@@%89$#$$@@@@#@$$<1&$&=%$##o#$##$$&>:##.##..#%# #.",
"@@@$&####@@#@@@@#88&@$@.@@.@@@$#$#.$2&$#o#&%###&&q:.#.#.####..#.",
"#%#####@#+@@@@@@#&;#@$$.@...$#@#$#.#=&$$###$$$#.&qq###.#.#.%X  #",
"#%#@#@#@@@#+@@#@ *-#@$@.....@@$%#$=$=$##.#&##&#$&qq#..# # #$. ..",
"##X#@@#@#@@.@O@@#;6#X$@..@X.@#$<$%##$$###o$##$o%&2:##.###. $=###",
"O@X####@+#####OO@::####@@@@@@$%<#X#$##$#$##$#$#o##;##..## .# ..%",
"O++%##=&###=&####::++#@@@+#%#@#%=%#=&&####%###&#$%;########  +. ",
"qrw:;:qert8686688eteqq8qee8eeqe88q>>;6q>::qqqq6;;:q;8866:=qq>qq>",
"7wit*#%:88-%#+O+*6:::::68;;;:>8::>qrq2&423wwww42&2522$$11&467w77",
"$<28++  OOO  +OO O     +%# #%@O+  =q612232211111221213113,o,$,,,",
",<2;#+O+O+# ++O OOOOOOOO++ +#OOO#%*>512222311111121113133,,11,,,",
"11<=OOOOOO +&+%@OO   OOOOOOOOOOO++*q23342222111o12223133,,,1,,1,",
"21<*OO=*+OO+%&%O   O O OOO##%OO###*q;3344323221123223,34,,,1,,,1",
"112=  %%#++++##%  OO O OOO###O+O#+*q233403232111333311331,$111o1",
"11<& +  #  ++#++     O@  O#%OO%%+ *w511233132122123111131,111,12",
"2<<*    ++ +OO+O OOO     O+#O+##+ *q222133332,22123121121111o112",
"2<2*+   +#  OO OOOOO O.@OOOOOO O+ *q5223042333123121313311121111",
"73=:*%+**-*%%-*-*%+#===$%%%%-;%=;%-q;=&=2;2&=2==$$&=4w72244www44",
"656r8;:wtwt9555==6>;;:23eewrtutrq;qutqqqqrtqqrqqqq>:;=;5q2;;52==",
"<<<$$$$$X$&$,,,$#;8$#$o,%$#$%%$%$##;q66q6qq5wwq7qut5ooo&2$o$$oo$",
"<<<$$$$$$$$$$$$$$;;##$,,$@@@#$$@#$#o.#o.Xo#..$$#o8>&1o$&22o&2&$$",
"$$$$1$$$$2&$$$&$$=;##$o,o##.o##o#&$#$$##&&o#X$$$&qq&$$$$22$2222$",
",&,$,$XX$$$X$X$,$;=#$$,o.o#X.o###$$&###$&$$#X%&#&q6&$$$$22$$122&",
"$,$$$&$XX$X$X$$$&::#$$&$#####&#=$&$&#.#&##$###$#oq:$$$$$&$ooo$$$",
"$,,$X$$&$<&<$$$$$:= .##oX$&$$#$&$###$o#$$##&=$#$o:>$$$$$$$$$$$o$",
"&,<<X$$XXX$,$&,$$:;##...##$$#o##o#o#&#$#o%$$$&$#.>q$$$$$$$$$$$#$",
",<,&.XX$$X$$X$,$$:;#X.o#.#$&&##o####&$o####$.o##o*;$o#$$$$$$$o$2",
",33$$$&2,$&$&,&$$;;##.#$# .$..##.#o..###X##$&###o*;o$$$$$$$$$oo$",
";9t68996698w9w998rq:q6*%%%%*%%&#$%%**%%%&;2=;72;&=;&2545525&=***"
};
