/* XPM */
static char *N_image1714999992[] = {
/* columns rows colors chars-per-pixel */
"64 64 67 1 ",
"  c #4D361D",
". c #543A1E",
"X c #593D1E",
"o c #553D23",
"O c #593E23",
"+ c #62421F",
"@ c #574026",
"# c #5C4125",
"$ c #574028",
"% c #5C452B",
"& c #5F482E",
"* c #5F4930",
"= c #624425",
"- c #654827",
"; c #61462A",
": c #634A2D",
"> c #6B4D2D",
", c #714E27",
"< c #6E502F",
"1 c #72522E",
"2 c #644D32",
"3 c #6A4F31",
"4 c #675036",
"5 c #6C5234",
"6 c #6C5539",
"7 c #6F583D",
"8 c #735534",
"9 c #785733",
"0 c #765837",
"q c #7A5A36",
"w c #715739",
"e c #755A3B",
"r c #7B5D3B",
"t c #7E603E",
"y c #765E41",
"u c #7A5F40",
"i c #7D6142",
"p c #805D36",
"a c #805F3A",
"s c #83623D",
"d c #89663F",
"f c #836542",
"g c #896741",
"h c #866846",
"j c #8B6A44",
"k c #816748",
"l c #866A49",
"z c #8B6E4B",
"x c #916D46",
"c c #916F49",
"v c #8E714E",
"b c #93724C",
"n c #99764D",
"m c #8E7250",
"M c #927552",
"N c #997750",
"B c #967956",
"V c #9A7B56",
"C c #977B58",
"Z c #9A7D5A",
"A c #9E815D",
"S c #A1835E",
"D c #9F8260",
"F c #A28561",
"G c #A58965",
"H c #A98B66",
"J c #AA8D68",
/* pixels */
"6i000055ew5w5:53676w5&><<<t5tyyy77554>48tw7wwei647ttttttt99tdtt4",
"5fcjgd9thttt00032ttst9ttt9tditiy645ww0<8<1<eiit44tvtdt9tdxxxAdt:",
"2tCBMvzbbzjddj02&<tjNtzbxdxAj0t7*25tt9509tqqitw725zvdttvAAAtAAt<",
"2svBvvvZASCABt93&8tAm-zAAAMAh1t546ttdqtqdqtqtt363:tAAzAtAAAAAzt8",
":szACAvMAAAAAt9<&9tAbtwhvzvAlts-2et9tdddddtd11:6&5ttzAAAzAAAAdd1",
":qvCvMMMAAmmAt9<#ttMht-5tvvAvMt-*7t8tdbdttqq1024&8tt<tAAAtAAAAd-",
"-rMvmMMAAAAMFs13@:<t<<--tvAAlvt52et,9ttt101tte43$5tt9tzAAzAAFAt,",
":smMvvvCACCMAz05&><8<185:lAiAzq<25Adqqtq888t8844&&t9<tAiAzAAAFc1",
"80ffe0rrtw8<<q54423:<52885q5rfx52ettttt00tt5>276:5t<18vztizAzAc1",
"20>1>;38<:5<>5::&6325%%%@>>;>3052e=:55&&%&&%@&242&&&%-%@::3<:3tt",
"OXO#OO%2&%>&#;42&&45&*422;#XOXX;&@&%%&26222522&&462%&2&@#.++X+X+",
"spaprdkw7bheffe0w6e652624fsrsrrstte4ezv76itww8tt75wttt73&wwtttdt",
"aarqagi22hiwrr0sste0e0e42ttsjjdxbtdtttt>2tstqtdAdtxjdb0>*wttFtdd",
"0MVMVq8646ie0:6sstq00>662wlMVAZZAdtt91t:&tAd91ttddxdbd0>6wt8wAFF",
"uzMmMq666wttg5rjstqs5:2525lmvBBMzttdvbt:4szAdq,ddAjdds8667<&>tAA",
"f8r850e76etetsdxdjq0556645tlifkMAvAAAvq,:svAAdddddtxdtw546ttttqt",
"lq<qrau546e3wjada0;88e8w6w-+8zVSZZZZZVa-:szCZmcgdddddsq25tttttsq",
"<8;;rge24:3058e03:8qr034238gBACSJJZMZZx>2azZZmNjdddddqt56tttw0t,",
"q80>8ee625rrsy5esfru08342:5mvzBlZZMlMZc1:dvZZZCdq0tt1tt2*7ttttt9",
"e3w3355w653yuyu06y0588322#58580;>u88akh95faakls8><199t5247t7twtw",
"4222&%2642*422%%2222:o%2%$oOo==##;;>-O;>:3:>;;;2-@OOO&&&644*224*",
"46646226y62%244:%22*%o&2:;O@O#O o;;OO.#>:;##2;::%&&:O+%>46666677",
"yyf5e5kfsssuwuy626w2w85w8rpfjNb:wNbsdxnVcngyuei54dtttdtqtxdjziiy",
"6is8jf50jxgs0ss425028e8ezMZNSSN,>cHZnZHZVZbsffe;%tvxddtdbNAzvvi6",
"228jdxd,,axxaas54665qq9hMvBMBCc>>vZZZMCZFZM1scr22tzCvzMvMAbdddt6",
"268jddxna91ggra4245:zqhVAvMAFZr>>lMvZMZZZf<ssdg22tMCvhMAzbAMcdt7",
"4spxaxxnxaa<3q52;658zhvACBCAChj1-lVZHZZHCggbsda2%0MAMvvClvAAbst6",
"6ercxncNxjxg<ge%:65:f0hCCMCMfCx->jZMZJZZMVVcjxh35tvCzzvCmmAmAd04",
"6urdgxxaads8>93:&w53t><MCCMtmGh=>jZMZZZZMBfd9sz:<tMbMMMvvAABNAt7",
"2rs0<<:8918w8<;2*ew:5<<w559imDj=>zZzZzllv00r9st23tml0fMvAMzMvAt6",
"462;32;%:33353344e4%:5:;-#::55::5fw:36;*:50w00t:%t53>1<<<0t0dv06",
"24&&%:&65422OO:2*2444:%o@4:%%$%%#%O.ooOO$*%%%%%%%$@@@.#..XXX#=%&",
"5ww35w6626yyw:2yy48<yuu2%yuwwa9uup818wu64y233433y33w8>r>>9,1998>",
"chapsr522wyk524y3aajaszy2pasdlbcjhMjddjyyy>y0yuu0fu3ahb55bcfddgd",
"Nxasps83:6uasyaskpfVZca523sMVZZZMjMcbjp:y3>0sjaaas=8afa*%qeshbbx",
"bnnjjs32:6yZMsahJZmlVuy5;>yVZZMmvvMvMja;*:8mZZZMu8fbl8>:%;8sfjgb",
"cNbca06:6yyZcszZZZZZZjy;:>wMZZCmBMMMzk8:*3fCmCZZMMlMj9>;O>5ffagN",
"NZCmMs3;4syZs8uuMZZZZjay4usZJZCmZZMBms0:23uvMCCmZZVksa3;O51fncnV",
"ZZZCMr3;:wkkq8>>3kZZZh8y3ufZZZZzZZJHZju32<uMVZZCZZZs835:6yeaxjxc",
"ZFZlua8;*ya85e85882klwa52wumkkaklCZZZkr3:<ukklfkklM9a>;*23saq8sB",
"zz8>:983*::38w523:y*4aky*w:#%::;w88wy>83:u<8;38<<83<0a52%8hre88u",
";333>3y5o2*;2:6:;2OO33y4yw;225522w83>::;2w5535u88303;2w2O3y583;O",
":;:33:36O4:;22444#;2%;;222*45yy**4y4:2;#2242244222;;3:22%:&26:%%",
"4y05sywu8w833ww4yyuayuuuyuuauuy4ykkuywyw88wyyku56fgfffw3435wyuu6",
"23fzaaahff8888p>5sNNasafssfhkaa5*ykffw383acfwakw2fZcVnxsraragfa0",
":5cGmZGZZZVZN0f:;hZZVcaplcglhsy3*8aulM8>>3a1uh082rZFZZZbCcaagaa3",
">slZBZZZZBMbm>h3:sZJZZNxcZVxpa94*wawlNaaVj1vZha32rMZZZZZBzzcCNj8",
"yslZZBZGZZZVhaa83fJJZMczczclf9u42yu2#phala8zZNd33uVVCCZGZzbBCZaw",
"2rsZZvZZZZZZfkh9;kZJZZCmffmVNsy4y*3880zmMk8<8rpwwfCZCZZGGZZZZNfy",
":uumMkZZZZZZmmj<:aZZZZvCmjZZZf<52ya0<ujvVbsMjs535hCZCmZGZBZZZZjr",
"OuMkf8uallZZamf>5aZZZMlmcuakfaw52yu0w8ayfMfMu0r32kFZCCCFBBCZMMaw",
"y8e>:5*;;58k3kay58llk3:<3<3:=>aw2yaww3;y50ws33uw3flflshhef8:3:qu",
"32222:**;;$$*::3%#oo#;;3::;#oO;*2%*:*:OO#oo%o2:3;;O##;;=OoOOOo;3",
"*:2O:662*2::y:23;%#..oOoo#;OoO;2*%:*224**OoO#:%:OO%O=;Ooo22O**o%",
"easw6jly4ufffhhjhds<aa9;;faasfhssdfa0su23hfsssrrfxhxjfx82y88auye",
"cmkduf0:%2uppaadxNNsdl1=;akspshccblxbVj>;jVndMMZZMlVZFh>%ys>k95r",
"uklMy::2*y<8lmzZZZZbCzp:;1lgp9<hzMMmZZx8;sksywzZmMZZZZf>%rCdap8<",
"lkks9336*:;<MzzCZZZCZfa;#8uaga9jfMBmZZd3OpMMCMZCBCZBBbs=#sMhjfa-",
"vMsu533223;>ammllCMzck98;8<aapajvZMZZVs>;kZZZZBZCMMzmma++rh8dx>1",
"sfa>6ww22yy;uZNzkczmBa<3;phcj<umMZZZZbs>:lZHZZBZBBMjmmf+>uz9p::p",
"sa883w5;*>3w:lCvjkhlva8:;alN<>;9mMZNCZb1;sZZZZZZBZMmmBc+=fM9s5r8",
"ku0336>**3uuy3f:;;>;38p##8fy;aaaMCZCMBb,;fMCCmk60lMZMZM==ss>>wpr",
"388>y334*6y353:::3>::<u%Okp#:<yka8wwwuc8;9w23%oooo:4%O*+:e9ry6w5",
"%%oOoOO******oo#%ooooooooOOo** Ooo.o.O##%OoOO22*22OoooO%O o%:O2O"
};
