/* XPM */
static char *S_image1714999993[] = {
/* columns rows colors chars-per-pixel */
"64 64 49 1 ",
"  c #3F3B37",
". c #403B37",
"X c #413E3C",
"o c #43413E",
"O c #454544",
"+ c #484745",
"@ c #4B4947",
"# c #474748",
"$ c #4B4B4B",
"% c #504B47",
"& c #514E4B",
"* c #54514E",
"= c #58534E",
"- c #4F4F50",
"; c #504F50",
": c #4F5050",
"> c #545353",
", c #595653",
"< c #5C5956",
"1 c #575758",
"2 c #575858",
"3 c #5C5B5B",
"4 c #605B57",
"5 c #615E5D",
"6 c #63605F",
"7 c #5F5F60",
"8 c #5F6060",
"9 c #656463",
"0 c #686765",
"q c #6A6867",
"w c #676768",
"e c #686768",
"r c #6C6B6B",
"t c #706F6E",
"y c #72706F",
"u c #6F6F70",
"i c #706F70",
"p c #6F7070",
"a c #737373",
"s c #787776",
"d c #7A7877",
"f c #777778",
"g c #787778",
"h c #7B7A7B",
"j c #807F7F",
"k c #7F7F80",
"l c #807F80",
"z c #7F8080",
"x c #828282",
/* pixels */
"$1>143*Ooooooo.....@%&+++O%>>11>&11&+ooXXO&$$+X+>31$+ooo+XXo@&>-",
"3hatssr0666440q09956>$<<,<44<=4r0060096061$904<<30trq96444,><<5>",
"3aaay6qqqrsq66ttrtit2+6996354313006wrtttiw#9q0rw31606e0rrr096ww>",
"3t0tr6rttqqyt6tt090a6O9055960w5300939rr0ew#9r0r9<,509999wrrrwew>",
"<y696qtttyrtyyyrru9e3O0tree9we6799554r09r9#3rr9665w9009959rrrwr$",
"1sqq06qyyqyayyayaarr3O0rrrrw59595909w00rr9#3er99959900err9359wr>",
",syaytyrtasayqysfaif3O9rrerr0re59rr0999rr9#5rrwwe999rrrwwwww93r1",
"1sysyarrtadytrasfirh6O0iurrrrrrw0w9e93qrr7#5ewrrew0r90w0qrrrr9e3",
"3laaaytttqartrahhirk9$rurtiturrw00r559ewr9#9rwrurwq0rrrarruaruu3",
"1hxhhhssshhhhshhkhhx7$rfafaiaaaarraartaaa9$3aaaaraarafaaauaaafe>",
"$$$$++@O+$$-$$$$$$$$---$$$$#$#$&;$##$$$$$$-$$$%$$$$$$>$$#+$$$$$-",
"arr6<,%**&$>1139e9rrruww93>%%$O$$&&%%&3w43259re5=$&&$$&&&><6rppa",
"hjar0q6qq9#9yrar0550agat9rrr065$&r0trr0ragaarrq0q0qr3#qayyhsatrr",
"raqyytatywOwtqe965,159err00rrre$&reirr939iw439qqrtaa3Oyaasyqw60q",
"qyryyyarr9O9rrww009315wtrrrtrie#$trairw5550r099raaaa9Oaaatq6646y",
"t0traayar9O9rrqq9re9559ettrrirr$%arie0rr90rrrrtt00qr3+sap0rrytqr",
"00yr6qysaeOwie9499w05>14099rire#$arw99urrr56qrq900rr8#sa00ssytq0",
"q0tq0qssawOwr550009rr9<><rr00rw#=arwwwurwqqq94qqrapy3#sr0qyssayq",
"r0qyyqrsgrOwr9509999599335r90qr$*irarrrr49qr09rrrrya3+aqrq6qyasa",
"satdhhyykg$raetaar99r0tte39aaga>1ahhffarraaasahahaah9$hsassshxjh",
"paraaarrt6$295rrr0eerrrrrw66rrw>>rpipprrraprrrrrrrrr3$9appyyaaup",
"$OOO+OOOOO$$$$+OoOOO$;$#OO#$$-$$$$$$:$$$$$:$@@OOOO+OO+OooooooOO$",
"$<500954<<30rr5=,&,=$&>3>=19rur0wrprrrrrw8-3qtr6wrr064==,,46661+",
">trryrqrer0rrrqtrrrt2$550w97w6eurwwrw99rrr$rs6sarqqtrasaar6tyta$",
">yrrriaar00wrrritrtt3O619ew699rr9969qqw9wr$yhatq0q0rttyaaaatqra&",
">qrr0itatr950ratrttt1#9939339w9wrw39w9q9rr$rhrqyyystasasassyar0$",
"&559rrtaar0950taaaaa3#9e995356wrw36999rrw9$rhtttttasarttq0qtrt9+",
"&rw,50trair953raaaaf3#erw9963355699w899w09$qrrtqttast6690ttaaar$",
"&0w4690raaare95590rh9#ew9w969333wrrrww98w9+rharasatrirtrraaasha+",
"&rrw6135aaaiar0950erw$rwrrrw77399rrrqw9633$ajtrfhyrtaraaaaffhha$",
">sgaar0arsgaaaraaash9$urraaar9euiwrpiriir9$axjzxxhhjhhkhhhkzzxh>",
"$>1>>>>2212321122332--;22222223371>1>*113>$$332332333331122223>$",
"o  o...+>$$-1211>&@@@OOO&->131:$$>>221*$&&$::@Oooo.o#$OoOOoooooo",
"6666000rst$9yaaq66356w98wpiirrr>1hiayrrqw66qr0qq006q2$yhdaytrtqq",
"hhsttrtrya#w036690wqrrpuriirqif11fir0q069wrrrryrraaa9#jhaysdjyjs",
"hdsaayrasa+0r6660quqwrrrrw0550i>>a9600q69uurryyiyraa9@dr66666tjs",
"hdhdfaayt0+9rqrrrwrirrrru0699qr*&0600000wurrraiaauyr0#y66qt666qs",
"tdddfdarr6O5rq00w0wirrwrw090900::0rq0ryrruwrriaai5<03Odryysq6660",
"6yhhdsytawO7w6w09rrrrrqw0006858->rqqrrryrrrw976q060q,Oarttttq6qq",
"6qdhdhaahrO7ywrqrurrrqw680260re$,y09rayiu696063<7qqy7Orrtjyttjyq",
"dqralldhzp#9pruwwupurwwqyr00ria>1r00wiyi0wryr6656iia8Oyiyjddyahh",
"jjdhxxxzzu$7ffafpprr9wrrafaaafp>*iafayfaaahhaaafraff2$rjjjhjhjxj",
"&$$$$$-$$$::$$$$--$$$-&$$@%o#$#@&@##@#@@#---$$$$$@$$&-##o@@OO$$&",
"&*,3ww8rr9535,339www2-9r64,==,=*%o@@%%@%*&$163***,*,3,3*4=,62**-",
"*6593690rqrrruryyywq9$ljstytyqryyyyyyyayrr#wyqrriw9rarraiq99iyr>",
">r069752<6qiuprrw0667#yrrrtttryyyhhdsdhdfi#0rqrrierrwriirqw96ri>",
":rrrrw013,36773470wyr@ayyyryyyasyyharrrdda#qyryrwrqqw0raiyir9ra1",
"1rwrww64365,,353357r9@dysdsrysdhdyyyar66rf#wyrr06rrr99wrrqriura2",
"1trrr6w666653399696w9$hdyddyyadhdrryapprif#wr880wqwqrrw65653<0a3",
"3ayw6wrrw93w0059939r9#haayyy0qr00yayaharra#9r66rrrqruw98666<,*61",
">rrr9wrrtw349995369r9$hayyyyririyaahhhhfpj$9yqw06wqw565696qq5,91",
"190yrrayutrwtrurwiri9$xlhhhjhhjjxxxzhjxzhj&qdyppriiaq0riiryyirr,",
":769rrwrrwrwwwwrrrew>-9ayyippappaafiiiafi2-1rrrrirrr92wirqrrru8:",
"$$$$$$$##$:$OoOOOoO#-$OoooooXXO$&#OoOOOO#$-$@+OOOOO#$-&$###OOOO-",
"0556rfy06-$*4=-,<<6yhy<4<====*=$&<<,=<966rr969<====,>-wr0<6,,<13",
"r0609wttt6+6yqtwryrryytyyyyafaw@*rraarqqqwyayyrqwr002-ayq00q0060",
"tyrrr7rrtwo0tratrr96iyssayafffp#>irai0rre9rpapirurwr8$yyqqrrwrq9",
"ww9966650r#4atrrrq09qraaaaffhff$*yuiw90wr99piiqqirru7@6riyiuwiiw",
"00rw56600w#6trrrrqw56ysafhfaaha&>aiqwrrrr966rrryaapa8#630iapuyiw",
"yyww650qrw#3yartyrq93rssiqq056r$:r99raar5=*,6raaaaaa9+9,560iaprq",
"ywrw8w90rw#6daydaarr9<qaryrrqrr$*y95609<3<33<9ifaaaf9#w886=1ri9r",
"ywryrrwrr9#5tyysaffqr06rasydfff-*arw66066rq6899rpawr6@qq896526qy",
"aayffaafdr#6hdaaaahhshfyfhhxzxj>1hhfaaafhfaaafp0ydff8$rfyyyu06wy",
"283382233>&-32<3222288828526882-:26232132328821*>827-->8828221,-"
};
