/* XPM */
static char *W_image1715000516[] = {
/* columns rows colors chars-per-pixel */
"64 64 127 2 ",
"   c #150E01",
".  c #190F00",
"X  c #171001",
"o  c #1D1302",
"O  c #1E1609",
"+  c #211603",
"@  c #231905",
"#  c #251C0B",
"$  c #291E0B",
"%  c #321F03",
"&  c #271F12",
"*  c #2B210D",
"=  c #362305",
"-  c #352308",
";  c #392709",
":  c #3B2B0C",
">  c #2D2412",
",  c #2F2817",
"<  c #2D2718",
"1  c #2F2818",
"2  c #312714",
"3  c #342915",
"4  c #342B1A",
"5  c #382E1A",
"6  c #3A301A",
"7  c #352E20",
"8  c #412F0D",
"9  c #43320C",
"0  c #583C01",
"q  c #473613",
"w  c #644405",
"e  c #694603",
"r  c #654904",
"t  c #6C4B04",
"y  c #6D4C0B",
"u  c #704704",
"i  c #724E03",
"p  c #724E0A",
"a  c #755303",
"s  c #7A5503",
"d  c #775805",
"f  c #7C5A03",
"g  c #77540A",
"h  c #79550A",
"j  c #7D5B0B",
"k  c #754E12",
"l  c #785612",
"z  c #7D5C14",
"x  c #7C611E",
"c  c #815603",
"v  c #845C03",
"b  c #8A5E03",
"n  c #82560C",
"m  c #835C0B",
"M  c #8A5E0A",
"N  c #835C14",
"B  c #8A5E12",
"V  c #835F19",
"C  c #866104",
"Z  c #8D6403",
"A  c #8F6803",
"S  c #84630C",
"D  c #8C630A",
"F  c #8E680B",
"G  c #926603",
"H  c #956A03",
"J  c #9A6E03",
"K  c #93660A",
"L  c #956B0B",
"P  c #9A6E0B",
"I  c #977004",
"U  c #9D7103",
"Y  c #97700B",
"T  c #9D720B",
"R  c #856312",
"E  c #8B6313",
"W  c #876814",
"Q  c #8D6B15",
"!  c #86621C",
"~  c #89661E",
"^  c #8D6B1C",
"/  c #936613",
"(  c #956B14",
")  c #996D13",
"_  c #906418",
"`  c #906C1B",
"'  c #9A6E1A",
"]  c #937117",
"[  c #9D7313",
"{  c #9F7814",
"}  c #94721C",
"|  c #9C741B",
" . c #9E781C",
".. c #A17504",
"X. c #A57906",
"o. c #A2750B",
"O. c #A57A0C",
"+. c #A97D0C",
"@. c #A27512",
"#. c #A57A13",
"$. c #AA7D13",
"%. c #A2761C",
"&. c #A57A1B",
"*. c #AA7E1A",
"=. c #8D6C21",
"-. c #967420",
";. c #9C7523",
":. c #A77D26",
">. c #AB7D21",
",. c #AD810E",
"<. c #AD8114",
"1. c #A6801B",
"2. c #AD821C",
"3. c #B18515",
"4. c #B58A16",
"5. c #B2851B",
"6. c #B58A1B",
"7. c #BA8D1D",
"8. c #BD911E",
"9. c #A78023",
"0. c #AC8321",
"q. c #AE8822",
"w. c #B28521",
"e. c #B58A21",
"r. c #BA8D22",
"t. c #BD9222",
"y. c #C09524",
/* pixels */
"M @.*.$.@.*.*.*.*.+.+.,.P P D G b G G H G H J H H G v b c c c ; c G M M / / B L #.<.#.#.*.{ T G G G G J H J G J b G G L U T K q ",
"v f C Z ( 9.:. .%.@. .[ L Z v s b G b G G G G G G b Z c i s e @ c g m [ | ;.( / / H P P { %.[ C D Z D H Z G b Z b Z A G Z b s < ",
"b Z H o.2.e.w.$.*.r.q.@.o.H G J J H J J H H J J G b G b v s e * c M / #.2.2.%.*.@...P +.<.t.<.P P P H H Z J J H J U J G H Z f , ",
"b C U ,.3.e.2.4.<.<.t.<.o.+.X.U U ..J J J U J G b c b b v v f * v T 0.$.w.6.5.7.$...X.5.r.e.6.@.T o.P ........U J Z J J U G f > ",
"G A T ,.$.6.7.4.+.3.7.,.,.,.X.U ..U ......J ..J J G G G b H m 2 Z / >.r.r.y.8.7.4.$.,.3.w.3.3.$.+.O.o...X.....U U G ....I G f * ",
"G Z ..X.O.T 5.5.7.6.6.+.+...o...H G ..X...H J G G H U G H J b 5 Z G L #.6.6.6.5.y.8.3.6.r.3.3.o.o.$.o.o.P U J ....I ..U I A f , ",
"Z Z T o.+.+.O.O.$.r.6.,.+.T O.U K J ....G H ..J H J G Z G G f 3 b G G K O.*.3.O.$.5.7.y.w.<.<.O.T $.#.o.o.X.H ..J J U ..U H f , ",
"J G U O.,.+.O.+.@.7.7.3.$.T O...U U ....H G H ......J J H b s 3 A A J G P o.+.o.o.*.y.r.r.w.<.+.@.O.o.H J X.X.......G G I G d > ",
"P Z T +.$.O.T +.$.7.6.$.4.O.o.X.....H G U G J ..I ..J U U A f 5 b H H G H +.,.$.6.5.w.7.y.t.r.6.3.#.T T ....X.U X.....J G H s > ",
"P A O.<.+.+.T O.#.3.5.*.7.#.@.L P O.I b G J ....J J ....U H s 5 G G H b P +.,.5.r.5.5.7.5.t.6.#.+.O.o.o.+.+.+.T ....J ..J G s , ",
"J D o.+.+.<.,.#.5.7.>.7.t.6.7.o.H T ..X.J J G H H J ....U I f 3 b A H I o...o.$.6.<.4.7.e.r.<.T ..o.+.o.o.,.T X.....J J I Z s 2 ",
"H Z ) o.O.3.6.7.8.5.5.6.7.r.7.#.+.X...U H H H J J ....U H A f 3 v Z J U U T U ,.6.$.<.7.3.5.T T J P T T ....T O.....U J U A f 4 ",
"P F T T <.7.#.+.<.4.,.#.@.>.7.*.<.O.+.T I I G J J U U U H Z f 3 v v H I I P Y o.3.5.5.7.1.2.T H J P P o.T T { +.T U J U H G s > ",
"L Z L P <.2.&.{ @.*.{ *.| >.e.@.T { H H U H G A G J H U H Z i 3 v Z Z H I H U T @.e.5.6.5.2.Y I G Z Z H T T U T T U H A v f r > ",
"D d d S Q ] -.} ] Q Q =.;.-.` j j f s s f s t s f f d f s a r 3 s t t s f C m S Q ] ;.] Q Q j j d s m C S S j f S f f f s t r 1 ",
"9 # > * # @ @ o @ # * > > $ @ + o o o o o o o + o + o o o + + $ % o @ + @ * > 2 4 2 2 , * * * > > * > 2 3 2 * * # * @ # # $ # # ",
"Z H K M n E T L P _ ' E B n p = j M Z H b v G b Z Z c c b G s c f Z P H K D L ) ( [  .&.%.| E ; k j n D K H L H Z D A b v D Z v ",
"A Z L L %.[ | *.[ / | ' :.=.p + ( C v A H A I G G G H Z b b Z A Z Z H H H P [ [ q.9.%.5.q.{ W # E Z D D D P O.T H L Y I H H Z A ",
"A G G O.5.[ | | :.>.&.( ' _ y + %.A Z H U I I I H J J J J J H G H I U P L o.O.@.2.e.6.2.6.0.} $ ( L L T P / ) O.O.O.T T H J H H ",
"G H T $.5.#.) @.*.w.&.@.( _ p o ) D P U U ..U U H J J J ....U J J ..o.o.T T o.4.7.6.8.8.2.2.Q $ [ L M o.@.P o.+.+.X.o.o...H J U ",
"J T O.6.r.5.3.3.4.7.w.6.&.;.N + [ L G J ....X.J U U ......U ..J ..X.+.O.+.$.4.7.6.6.3.,.O.T R * {  .%.w.%.L $.3.T X.+.3.O.J H P ",
"X.o.$.6.5.3.6.+.3.6.r.3.*.:.V o [ G G J J J ....U U J J J J U ....X.o.o.+.3.y.$.2.6.O.X.U D d * ) @.*.2.*.5.4.*.T T +.+.$.o...X.",
"o.+.$.#.$.O.+.X.X.$.3.+.<.[ h o K Z J ..J U ..J J H G G H U J ....o.T ..#.6.7.$.3.6.O.O.P P C * [ @.[ <.6.7.7.3.+.X.+.+.$.+.O...",
"..X.+.o.+.X.X.J P o.+.<.<.T h + C I H U J J ....U G H ..U H H Z ..o.J U O.r.e.@.$.7.<.P T T S $ [ { T $.3.7.3.+.o.o.o...+.*.T J ",
"O.o.$.+.+.J P J J o.$.6.0.T S @ K H I J J J ..J ..G G U J J J ......J J +.8.7.5.6.*.$.O.T T S $ [ { o.o.<.3.$.o.T U J o.O.O.O.O.",
"o.@.$.+.X.P ..J J o.X.,.&.P f + G A J U ..J ....J Z H G J J ....H J X.T o.$.$.7.8.*.$.3.O.L m @ [ O.@.5.r.$.O.T o.U ..o.o.X.+.O.",
"P @.$.O.X.U U J H U X...P D d o G G J U G U ..U J H G G H ..U ..J J U U J P T $.3.5.6.*.T L W $ L T #.w.&.<.#.o.o.o.o.+.o.O.o.J ",
"..+.o.o.P J U J J U +.P P H s + A Z Z G b J J G b b G J G U I U U U J U J J ..o.o.@.e.w.$.@.W 2 T ( ' &.#.3.<.#.O.#.+.3.+.O.o.J ",
"$.7.<.O.T H H I U o.+...T ( z + Z H C b Z H G b K b b J J J U U H J J J J J J P T @.q.<.{ [ W > L [ &.<.*.2.*.e.*.@.$.$.*.$.o.@.",
"&.@.Y I I G H H G J T P Y | z O v F P C b G G D M M M J H G G A b G A G L G G Z H ( [ &.&. .Q > D | 5.&.<.1.%.9.[ { %.) @.@.@.#.",
"n j m v C f d a i a m h j f w @ d t a i i s f a u p g s f a s f s f f f s i s i s d m W } -.x * C =.-.Q } ;.^ R S R W j j M n j ",
"2 $ * 2 > * 2 * $ @ + o o o X o - o o o . o o o . . . + + o o o o o + + @ $ $ $ * * # # * < 4 > : 4 6 , > 2 2 2 5 5 5 2 4 1 > > ",
"m C Y Y [ L D b D K P L / P K b b G c v b b G G v i c A A b s = e s A Z L @.#.[ [ | [ T P L T [ Q E / / B ' ' E P P L L T [ j ; ",
"D } [ T T T T L T L K D G K G b A G Z A G G H G m Z H A Z C t + i v Z A A A Z A Z P T @.{ %.1.{ *. .2.0.[ L { T L T L A L L R # ",
") q.2.T T T <.<.@.T P J G G J G J H H J G G J J G P U P H b r $ v Z A J P H U H P T o.$.+.<.6.#.2.7.e.#.O.o.#.O.@.#.T T O.{ } * ",
"o.q.6.<.4.<.4.r.e.<.+...G ..J G U ..U J J J ..U ..U H U H Z f * b G J U U U ..o.@.@.+.X.<.2.t.6.6.t.6.<.@.#.$.+.<.<.@.+.<.q.} > ",
"*.{ $.$.6.8.6.*.r.5.o.P H J ..G H ..U J J J H H J ..G U I G C 4 Z H J ..X.o.+.<.w.w.3.3.3.7.y.r.7.3.r.3.$.$.r.r.4.4.#.<.<.5.Q > ",
"#.) #.3.5.3.$.+.6.6...U J H J J H J ..U H G J ..P J J ..U H f 6 A H J X.O.,.7.*.>.6.8.3.*.r.r.w.$.2.6.5.3.5.5.3.<.#.#.,.2.6.S > ",
"#.Y #.3.3.3.3.7.7.+.U U ..J J J G J J H ..H G H J U J J J H C 5 G L P +.+.*.w.$.*.6.7.+.<.r.$.<.<.+.<.e.e.r.3.+.+.#.1.r.5.[ d & ",
"$.T O.3.7.y.r.r.6.o...U H ..J H J U J H J U J ..U J U H H Z f * Z T o...T O.P @.$.3.<.o.@.5.<.3.6.$.[ e.r.y.3.O.#.#.6.8.4.[ y O ",
"*.L O.,.3.4.6.5.$...X.G G U J G G J ..J U J J J J G ..J J H f $ Z H U U o.o.P / $.$.+...@.w.5.7.7.5.5.>.5.y.r.3.w.t.r.>.5.$.g # ",
"*.[ #.<.6.5.#.+.+.o.J J ..H G ..J J U U J J J H G J J ..U H f * b G U U o...o.P O.+.+.P o.<.r.y.y.r.5.@.+.3.3.5.r.e.%.' w.>.V O ",
"$.&.7.<.3.<.T +.o.J G J U H H J J J J J H J U H G G J H J H a $ Z A I T ..o.X.X.T X.X.U T <.4.<.3.y.*.O.O.o.#.*.5.>.%.K ) :.=.O ",
"[ &.e.<.X.O.P D b b G ..H H H ..P ..U P U G H H ..J U H G Z s + Z H I U U ....X.X...J J P $.<.$.+.3.*.O.o...#.{ %.w.' L L _ =.  ",
"[ 1.2.6.$.o.T I Z Z J J G H G G T H J U H H G H I U U I G C s + v C A H U U H I P U T H P T #.O.P T O.$.O.o.,.@.%.&.@.L L ( V o ",
"Y [ 2.#.T P U I A Z Z G G A G A J H H G G G G G Z H I A A Z s o f v C G H b Z Z G G H H T Y P Z G H T @.@.T T ( ' ] T P P D l   ",
"M j S S C f f f s t d d f a s a d C m f m h s s s f f f f a r + s i s f f s f s s f f v f d a i d f f S S m g l R R g g j j y X ",
"- # > 3 4 4 4 6 5 > > * * @ # O o @ + + + o + + o + o o o X o @ = + # * 4 5 3 4 3 3 * 3 > # # o o o o o + # + o + + @ # # @ # O ",
"D D [ @.*.%.' #.' D Z b v s s % u s b H G G Z G G A G Z c b b b L H G H G M P T @.[ B n n N W : h m N _ _ ( ) / ) / ) [ %.@.L M ",
"A [ [ &.{ D v G Z Z Z A A v s . u s v H Z G I G A H A A Z Z Z Z A H G A G D D H H H D M D m t @ C v s c M G K M L n v A H Z H Z ",
"H T @.T o.P H J H G G H H A s o s s A H H G J I H G H G H G G G G H P G H T J J G P P P K m t @ D v v K K L K G T P G D H H H H ",
"o.O.3.+.P o.....U U H H U G a o v b H G H U ..U J I U ..J J G G A J U U ..X.X.P G H T #.L K s + Z Z b P O.o.L J T X.o.J H P P T ",
"<.4.3.<.#.#.O.o...o...T ..H d o n b H U J U J J U U ....J ..J J J U X.,.,.+.o.P T G $.7.2.O.j # M D K T X...K J +.O.O...G J O.O.",
"<.6.t.t.6.e.6.$.+...X.+.o.P d + B c H ......J J J U ..J ....J U ....P O.$.+.T U +.o.5.3.2.*.S * L L H ....J J ..o.#.+.O.T K $.%.",
"@.6.t.t.5.4.3.e.6.+.+.+.O.O.f @ ( b J U J G J ..H G J ..U J ..J H ..P G +.+.+.o.<.5.3.O.<.2.S # L G D J L H J ..X.O.+.$.T ) +.O.",
"3.t.t.6.3.5.#.*.5.6.5.<.<.T S + ) b G U H H U J H H J ..J J ..J J ..P T 3.+.3.) 5.5.o.<.6.[ v @ P v v b b U o.J X...o.O.X.3.#.+.",
"3.<.3.r.8.6.+.<.<.5.r.e.5.@.j o M D H U G P ..J J U J J J J J J K K o.*.t.7.7.7.5.3.K *.4.P s # ( Z b H K ....G G J o.O.X.O.+.$.",
"L P @.7.6.<.7.8.r.<.$.$.O.P a @ ' Z D G J ..J J J J ....J J J G G K o.o.w.y.*.7.4.*.) %.$.T h @ &.G G ....P J G b G J X.....U o.",
"G U ..+.3.<.6.e.e.$.o.o.T L i + / s b H J J J U ..H H ..J J J Z J ..o.@.%.>.>.>.w.' [ 3.$.o.S @ %.Z G J J ..J G G J U O.o.U J J ",
"J J T O.+.@.2.r.6.#.O...U G a + ( c Z J G J ....J J U ..J ..U b v G J T ' >.7.7.&./ *.8.$.P S @ ( Z G U J Z b G J J J O.U J J J ",
"H G P P &.2.2.2.2.+.@.T U A t @ [ A A G G I U I U J b J I H J H G v M [ $.e.5.3.*.[ ) &.6.{ z O ) C b P H v v b J U P H J H J G ",
"G G G H T 0.0.2.2.&.| [ P Z i o ( Z C C A G A G J H Z G H A H J H m Z T 5.5.o.$.{ ( L /  . .Q o B L Z D b m b G G Z Z Z G G G G ",
"a d d f j ` =.^ } } =.Q j t 0 o Q d s s s s a i s a f f a a f a a i j C ! =.N R j S S S R ^ z X z j s s t t t a s a a a s s i i ",
"  o O # # & # * < < 4 < < & & o : o X X   o     X   o o o X .       X X o O # & 4 < 4 4 7 4 < O : O @ o O o O o o o   o . . . . "
};
